<?xml version="1.0" encoding="iso-8859-1"?>
<!-- Generator: Adobe Illustrator 19.0.0, SVG Export Plug-In . SVG Version: 6.00 Build 0)  -->
<svg version="1.1" id="Layer_1" xmlns="http://www.w3.org/2000/svg" xmlns:xlink="http://www.w3.org/1999/xlink" x="0px" y="0px"
	 viewBox="0 0 319.987 319.987" style="enable-background:new 0 0 319.987 319.987;" xml:space="preserve">
<g>
	<g>
		<path d="M314.49,301.082l-39.829-189.186c-1.461-6.94-7.584-11.909-14.678-11.909h-25V75c0-41.354-33.645-75-75-75
			s-75,33.646-75,75v24.986h-25c-7.094,0-13.217,4.969-14.678,11.909l-40,190c-0.931,4.424,0.182,9.032,3.03,12.543
			c2.849,3.511,7.128,5.549,11.648,5.549h280c0.006,0,0.014,0,0.02,0c8.285,0,15-6.716,15-15
			C315.003,303.636,314.825,302.328,314.49,301.082z M114.983,75c0-24.813,20.187-45,45-45c24.814,0,45,20.187,45,45v24.986h-90V75z
			 M243.628,129.986c-7.141,39.684-42.056,70-83.645,70c-41.587,0-76.503-30.317-83.644-70H243.628z M38.47,289.986l23.997-113.984
			c4.661,7.421,10.201,14.36,16.577,20.678c18.084,17.919,41.091,29.114,65.939,32.335v15.972c0,8.284,6.716,15,15,15
			s15-6.716,15-15v-15.972c24.849-3.221,47.855-14.416,65.939-32.335c6.376-6.317,11.916-13.258,16.577-20.679l23.997,113.985H38.47
			z"/>
	</g>
</g>
<g>
</g>
<g>
</g>
<g>
</g>
<g>
</g>
<g>
</g>
<g>
</g>
<g>
</g>
<g>
</g>
<g>
</g>
<g>
</g>
<g>
</g>
<g>
</g>
<g>
</g>
<g>
</g>
<g>
</g>
</svg>
