<svg width="416" height="388" viewBox="0 0 416 388" fill="none" xmlns="http://www.w3.org/2000/svg">
<g filter="url(#filter0_d)">
<ellipse cx="207.5" cy="169" rx="207.5" ry="169" fill="#ECF4F7"/>
</g>
<g filter="url(#filter1_d)">
<path d="M128.419 55.9878L129.032 58.9733H128.419H110.012C110.012 58.9733 103.876 58.9733 103.876 53.002C103.876 47.0307 110.012 47.0307 110.012 47.0307H119.215C125.351 47.0311 128.419 55.9878 128.419 55.9878Z" fill="#50DD8E"/>
<path d="M248.063 190.339C253.278 190.339 257.266 194.22 257.266 199.296C257.266 204.372 253.278 208.253 248.063 208.253C242.847 208.253 238.859 204.372 238.859 199.296C238.859 194.22 242.848 190.339 248.063 190.339ZM156.029 190.339C161.244 190.339 165.232 194.22 165.232 199.296C165.232 204.372 161.244 208.253 156.029 208.253C150.813 208.253 146.825 204.372 146.825 199.296C146.825 194.22 150.814 190.339 156.029 190.339Z" fill="#AE938D"/>
<path d="M133.02 82.8581H281.809C281.809 82.8581 269.538 148.541 266.47 157.498C263.402 166.454 254.199 166.454 254.199 166.454H159.097C149.893 166.454 146.826 160.483 146.826 160.483L133.02 82.8581Z" fill="#ECF4F7"/>
<path d="M275.366 61.9588V82.8578H244.689V58.9733H272.299C274.139 58.9733 275.366 60.4662 275.366 61.9588Z" fill="#50DD8E"/>
<path d="M244.689 58.9733V82.8581H232.417V47.0311H241.621C243.462 47.0311 244.689 48.524 244.689 50.0165V58.9733ZM232.417 47.0311V82.8581H189.468V50.0165C189.468 48.5236 190.695 47.0311 192.536 47.0311H232.417Z" fill="#FF7474"/>
<path d="M163.392 60.1674C164.926 66.4371 164.926 70.9155 164.926 70.9155C164.926 70.9155 164.926 76.8868 163.699 82.8578H176.583C177.504 77.4837 177.504 70.9155 177.504 70.9155C177.504 70.9155 177.504 47.0307 152.961 38.0739C158.79 45.5381 161.858 53.8977 163.392 60.1674C161.858 53.8977 158.79 45.5381 152.654 38.0739C152.654 38.0739 153.881 47.3291 153.881 57.1816C153.881 61.9584 153.574 67.034 152.654 70.9152C152.654 70.9152 151.734 77.4834 149.893 82.8574H163.698C164.925 76.8861 164.925 70.9152 164.925 70.9152C164.925 70.9152 164.926 66.4371 163.392 60.1674Z" fill="#FFE079"/>
</g>
<g filter="url(#filter2_d)">
<path d="M244.72 198C238.892 198 233.983 193.223 233.983 187.55C233.983 181.877 238.891 177.101 244.72 177.101C250.549 177.101 255.458 181.877 255.458 187.55C255.458 193.223 250.549 198 244.72 198ZM244.72 180.086C240.425 180.086 237.051 183.371 237.051 187.55C237.051 191.73 240.426 195.014 244.72 195.014C249.015 195.014 252.39 191.73 252.39 187.55C252.39 183.371 249.015 180.086 244.72 180.086ZM152.686 198C146.858 198 141.949 193.223 141.949 187.55C141.949 181.877 146.857 177.101 152.686 177.101C158.515 177.101 163.424 181.877 163.424 187.55C163.424 193.223 158.515 198 152.686 198ZM152.686 180.086C148.391 180.086 145.017 183.371 145.017 187.55C145.017 191.73 148.392 195.014 152.686 195.014C156.981 195.014 160.356 191.73 160.356 187.55C160.356 183.371 156.981 180.086 152.686 180.086ZM161.89 174.116C161.583 174.116 161.276 174.116 161.276 173.817C160.662 173.519 160.356 172.623 160.662 171.727C161.276 170.533 164.344 164.86 168.025 164.86H253.923C254.844 164.86 255.457 165.458 255.457 166.353C255.457 167.249 254.844 167.846 253.923 167.846H168.026C166.799 167.846 164.344 170.832 163.117 172.922C163.117 173.817 162.503 174.116 161.89 174.116ZM250.856 156.202H155.754C145.631 156.202 142.256 149.634 142.256 149.335V149.037L123.849 44.5409C123.236 42.4511 120.168 36.7783 116.18 36.7783H106.976C106.363 36.7783 102.375 37.0767 102.375 41.2566C102.375 45.4366 106.363 45.735 106.976 45.735H113.112C114.032 45.735 114.646 46.3323 114.646 47.2279C114.646 48.1236 114.032 48.7208 113.112 48.7208H106.976C104.215 48.7208 99.307 47.2279 99.307 41.257C99.307 35.2861 104.215 33.7928 106.976 33.7928H116.18C123.236 33.7928 126.61 43.3468 126.917 43.6452L145.324 148.141C145.938 149.037 148.699 153.217 156.061 153.217H251.163C251.47 153.217 259.446 153.217 261.901 145.155C264.662 137.094 274.785 83.0553 276.933 72.6057H140.415C139.495 72.6057 138.881 72.0084 138.881 71.1128C138.881 70.2171 139.495 69.6198 140.415 69.6198H278.466C278.773 69.6198 279.387 69.9183 279.693 70.2171C280 70.5155 280 71.1128 280 71.4112C279.386 74.0982 267.729 137.393 264.661 146.35C261.9 154.112 254.537 156.202 250.856 156.202ZM235.517 144.259C234.597 144.259 233.983 143.662 233.983 142.767C233.983 142.767 233.983 142.767 233.983 142.468L235.517 126.047H206.373V142.468C206.373 143.364 205.759 143.961 204.839 143.961C203.918 143.961 203.305 143.364 203.305 142.468V126.047H174.161L175.695 142.468C175.695 142.468 175.695 142.468 175.695 142.767C175.695 143.662 175.081 144.259 174.161 144.259C173.24 144.259 172.626 143.662 172.626 143.065L170.786 126.645H149.619C148.698 126.645 148.085 126.047 148.085 125.152C148.085 124.256 148.698 123.659 149.619 123.659H170.48L168.333 102.76H145.631C144.71 102.76 144.097 102.163 144.097 101.267C144.097 100.371 144.71 99.774 145.631 99.774H168.026L166.491 83.3534C166.491 83.3534 166.491 83.3534 166.491 83.055C166.491 82.1593 167.105 81.5621 168.026 81.5621C168.946 81.5621 169.56 82.1593 169.56 82.7562L171.4 99.1768H203.305V83.0546C203.305 82.159 203.919 81.5617 204.839 81.5617C205.76 81.5617 206.374 82.159 206.374 83.0546V99.4753H238.279L240.119 83.0546C240.119 82.159 241.04 81.5617 241.653 81.8605C242.574 81.8605 243.187 82.4578 243.187 83.3534C243.187 83.3534 243.187 83.3534 243.187 83.6519L241.653 100.073H260.06C260.98 100.073 261.594 100.67 261.594 101.566C261.594 102.461 260.98 103.059 260.06 103.059H241.346L239.199 123.958H255.458C256.378 123.958 256.992 124.555 256.992 125.451C256.992 126.346 256.378 126.943 255.458 126.943H238.892L237.051 143.364C237.051 143.663 236.437 144.259 235.517 144.259ZM206.373 123.36H235.824L237.971 102.461H206.373V123.36ZM173.854 123.36H203.305V102.461H171.707L173.854 123.36ZM128.144 144.259H106.669C105.749 144.259 105.135 143.662 105.135 142.767C105.135 141.871 105.749 141.274 106.669 141.274H128.144C129.064 141.274 129.678 141.871 129.678 142.767C129.678 143.663 129.065 144.259 128.144 144.259ZM123.543 126.346H112.805C111.885 126.346 111.271 125.749 111.271 124.853C111.271 123.957 111.885 123.36 112.805 123.36H123.543C124.463 123.36 125.077 123.957 125.077 124.853C125.077 125.749 124.463 126.346 123.543 126.346ZM118.941 108.432H100.534C99.6137 108.432 99 107.835 99 106.939C99 106.044 99.6137 105.447 100.534 105.447H118.941C119.861 105.447 120.475 106.044 120.475 106.939C120.474 107.835 119.861 108.432 118.941 108.432ZM149.619 60.6631H149.312C148.392 60.3646 148.085 59.7674 148.085 58.8717C150.846 48.4221 148.392 30.2101 148.085 27.2246L145.324 24.5376C144.71 23.9404 144.71 23.0447 145.324 22.4478C145.938 21.8509 146.858 21.8506 147.471 22.4478L150.232 25.1348C175.082 34.39 175.388 58.8721 175.388 59.1705C175.388 60.0662 174.775 60.6634 173.854 60.6634C172.934 60.6634 172.32 60.0662 172.32 59.1705C172.32 58.2748 172.014 39.4656 153.913 29.9116C163.117 43.944 163.117 58.5733 163.117 59.1705C163.117 60.0662 162.503 60.6634 161.583 60.6634C160.662 60.6634 160.049 60.0662 160.049 59.1705C160.049 58.8721 160.049 45.1381 151.459 32.0018C152.073 39.1672 152.993 51.4082 150.845 59.4693C150.846 60.0658 150.232 60.6631 149.619 60.6631ZM272.331 60.6631C271.41 60.6631 270.797 60.0658 270.797 59.1702V50.2134C270.797 49.3177 270.183 48.7205 269.263 48.7205H253.923C253.003 48.7205 252.389 48.1233 252.389 47.2276C252.389 46.3319 253.003 45.7347 253.923 45.7347H269.263C271.717 45.7347 273.865 47.8245 273.865 50.2131V59.1698C273.865 60.0658 273.251 60.6631 272.331 60.6631ZM241.653 60.6631C240.732 60.6631 240.119 60.0658 240.119 59.1702V38.2712C240.119 37.3755 239.505 36.7783 238.585 36.7783H230.915V59.1702C230.915 60.0658 230.302 60.6631 229.381 60.6631C228.461 60.6631 227.847 60.0658 227.847 59.1702V36.7783H189.5C188.58 36.7783 187.966 37.3755 187.966 38.2712V59.1702C187.966 60.0658 187.352 60.6631 186.432 60.6631C185.512 60.6631 184.898 60.0658 184.898 59.1702V38.2712C184.898 35.8826 187.045 33.7928 189.5 33.7928H238.584C241.039 33.7928 243.186 35.8826 243.186 38.2712V59.1702C243.187 60.0658 242.573 60.6631 241.653 60.6631Z" fill="#51565F"/>
</g>
<g filter="url(#filter3_d)">
<path d="M179.204 122.065L181.508 114.548L185.907 115.153C185.907 117.124 185.868 119.203 185.791 121.391C185.713 123.578 185.441 125.781 184.976 128H156.071V124.649L159.679 123.974C160.035 123.912 160.307 123.772 160.493 123.555C160.679 123.322 160.772 123.027 160.772 122.671V97.1636C160.772 96.8068 160.679 96.5198 160.493 96.3025C160.307 96.0698 160.043 95.9224 159.702 95.8604L156.071 95.1622V91.648H175.481V95.1622L170.71 95.9302C170.353 95.9922 170.081 96.1319 169.895 96.3491C169.709 96.5663 169.616 96.8533 169.616 97.2102V124.16H173.642C174.604 124.16 175.442 124.106 176.156 123.997C176.885 123.873 177.451 123.733 177.855 123.578C178.196 123.439 178.475 123.252 178.692 123.02C178.925 122.787 179.096 122.469 179.204 122.065ZM200.265 98.4669C200.265 99.5685 200.475 100.686 200.894 101.818C201.313 102.935 202.174 104.401 203.477 106.217C204.641 105.084 205.448 103.82 205.897 102.423C206.363 101.027 206.596 99.7004 206.596 98.4436C206.596 96.768 206.316 95.5578 205.758 94.8131C205.215 94.0684 204.509 93.696 203.64 93.696C202.616 93.696 201.794 94.0994 201.173 94.9062C200.568 95.713 200.265 96.8999 200.265 98.4669ZM203.524 125.068C204.175 125.068 204.904 124.99 205.711 124.835C206.518 124.68 207.325 124.385 208.132 123.951C207.232 123.144 206.324 122.259 205.409 121.297C204.493 120.336 203.609 119.374 202.756 118.412C201.918 117.434 201.119 116.48 200.359 115.549C199.614 114.618 198.954 113.788 198.38 113.059C197.853 113.633 197.395 114.316 197.007 115.107C196.635 115.883 196.449 116.86 196.449 118.039C196.449 120.118 197.069 121.809 198.311 123.113C199.567 124.416 201.305 125.068 203.524 125.068ZM217.511 128.465C216.393 128.465 215.3 128.295 214.229 127.953C213.159 127.612 211.995 126.999 210.738 126.115C209.528 126.953 208.093 127.589 206.433 128.023C204.773 128.473 203.05 128.698 201.266 128.698C199.482 128.698 197.83 128.512 196.309 128.14C194.789 127.783 193.478 127.224 192.376 126.464C191.274 125.704 190.406 124.726 189.769 123.532C189.149 122.321 188.839 120.894 188.839 119.249C188.839 117.791 189.071 116.542 189.537 115.503C190.002 114.448 190.592 113.571 191.305 112.873C192.019 112.159 192.818 111.593 193.703 111.174C194.587 110.739 195.44 110.406 196.263 110.173C195.099 108.482 194.176 106.853 193.493 105.286C192.81 103.703 192.469 102.097 192.469 100.468C192.469 99.041 192.741 97.7377 193.284 96.5585C193.842 95.3794 194.618 94.3787 195.611 93.5564C196.604 92.7341 197.806 92.0979 199.218 91.648C200.646 91.1981 202.228 90.9731 203.966 90.9731C207.131 90.9731 209.536 91.7023 211.18 93.1607C212.84 94.6192 213.671 96.5818 213.671 99.0487C213.671 101.236 212.988 103.168 211.623 104.844C210.273 106.519 208.178 107.784 205.339 108.637C205.928 109.397 206.58 110.22 207.294 111.104C208.023 111.973 208.768 112.857 209.528 113.757C210.304 114.641 211.087 115.526 211.879 116.41C212.67 117.279 213.446 118.101 214.206 118.877C214.749 117.977 215.121 117.031 215.323 116.038C215.54 115.045 215.649 114.153 215.649 113.361C215.649 112.927 215.594 112.593 215.486 112.361C215.393 112.128 215.168 111.965 214.811 111.872L211.273 111.104V107.59H224.213V111.104L221.793 111.849C221.451 111.942 221.234 112.097 221.141 112.314C221.048 112.516 220.97 112.811 220.908 113.199C220.614 114.641 220.117 116.038 219.419 117.388C218.721 118.722 217.736 119.94 216.463 121.041C217.177 121.678 217.829 122.197 218.418 122.601C219.008 122.989 219.582 123.283 220.14 123.485C220.699 123.687 221.281 123.826 221.886 123.904C222.491 123.966 223.174 123.997 223.934 123.997V127.395C223.065 127.69 222.033 127.938 220.839 128.14C219.644 128.357 218.535 128.465 217.511 128.465ZM254.726 117.713C254.726 119.017 254.478 120.336 253.981 121.67C253.485 122.989 252.686 124.176 251.584 125.231C250.498 126.27 249.063 127.123 247.279 127.791C245.51 128.442 243.369 128.768 240.855 128.768C238.45 128.768 236.185 128.489 234.06 127.93C231.934 127.372 230.103 126.728 228.567 125.999C228.521 125.161 228.505 124.284 228.521 123.369C228.552 122.438 228.591 121.53 228.637 120.646C228.699 119.746 228.777 118.885 228.87 118.063C228.978 117.225 229.095 116.464 229.219 115.782H234.223L235.13 121.809C235.192 122.166 235.293 122.492 235.433 122.787C235.572 123.082 235.797 123.353 236.108 123.601C236.573 124.02 237.248 124.424 238.132 124.812C239.017 125.2 239.994 125.393 241.065 125.393C242.601 125.393 243.795 124.967 244.649 124.113C245.518 123.26 245.952 122.143 245.952 120.762C245.952 119.785 245.743 118.916 245.324 118.156C244.92 117.395 244.362 116.705 243.648 116.084C242.95 115.464 242.12 114.882 241.158 114.339C240.211 113.78 239.211 113.23 238.156 112.687C236.946 112.05 235.774 111.407 234.641 110.755C233.509 110.088 232.516 109.343 231.663 108.521C230.809 107.683 230.119 106.713 229.591 105.612C229.079 104.495 228.823 103.176 228.823 101.655C228.823 100.135 229.095 98.7229 229.638 97.4196C230.196 96.1008 231.019 94.9682 232.105 94.0218C233.206 93.0599 234.587 92.3074 236.247 91.7644C237.907 91.2213 239.839 90.9498 242.042 90.9498C243.889 90.9498 245.758 91.1282 247.651 91.4851C249.544 91.8419 251.188 92.3074 252.585 92.8815C252.709 94.4175 252.717 96.031 252.608 97.7222C252.515 99.3978 252.344 100.98 252.096 102.47H247.232L246.255 97.1869C246.161 96.737 246.037 96.3646 245.882 96.0698C245.743 95.775 245.533 95.5268 245.254 95.3251C244.835 95.0148 244.284 94.7665 243.601 94.5804C242.934 94.3942 242.267 94.3011 241.6 94.3011C240.204 94.3011 239.11 94.6967 238.319 95.488C237.543 96.2638 237.155 97.2878 237.155 98.56C237.155 99.4444 237.333 100.22 237.69 100.887C238.047 101.554 238.551 102.167 239.203 102.726C239.87 103.284 240.685 103.827 241.647 104.355C242.609 104.882 243.687 105.456 244.882 106.077C246.216 106.76 247.48 107.481 248.675 108.241C249.87 109.002 250.909 109.84 251.793 110.755C252.693 111.67 253.407 112.702 253.935 113.85C254.462 114.983 254.726 116.271 254.726 117.713Z" fill="#FA0799"/>
</g>
<g filter="url(#filter4_d)">
<path d="M85.8065 262.098L89.2625 250.823L95.8604 251.73C95.8604 254.686 95.8022 257.804 95.6858 261.086C95.5695 264.367 95.1622 267.672 94.464 271H51.1069V265.973L56.5178 264.961C57.0531 264.868 57.4604 264.658 57.7396 264.332C58.0189 263.983 58.1585 263.541 58.1585 263.006V224.745C58.1585 224.21 58.0189 223.78 57.7396 223.454C57.4604 223.105 57.0647 222.884 56.5527 222.791L51.1069 221.743V216.472H80.2211V221.743L73.0647 222.895C72.5295 222.988 72.1222 223.198 71.8429 223.524C71.5636 223.849 71.424 224.28 71.424 224.815V265.24H77.4633C78.9062 265.24 80.1629 265.159 81.2335 264.996C82.3273 264.809 83.1767 264.6 83.7818 264.367C84.2938 264.158 84.7127 263.879 85.0385 263.529C85.3876 263.18 85.6436 262.703 85.8065 262.098ZM117.398 226.7C117.398 228.353 117.712 230.028 118.341 231.727C118.969 233.403 120.261 235.602 122.216 238.325C123.961 236.626 125.171 234.729 125.846 232.635C126.544 230.54 126.893 228.551 126.893 226.665C126.893 224.152 126.475 222.337 125.637 221.22C124.822 220.103 123.763 219.544 122.46 219.544C120.924 219.544 119.691 220.149 118.76 221.359C117.852 222.569 117.398 224.35 117.398 226.7ZM122.285 266.601C123.263 266.601 124.357 266.485 125.567 266.252C126.777 266.02 127.987 265.577 129.197 264.926C127.848 263.716 126.486 262.389 125.113 260.946C123.74 259.503 122.413 258.06 121.133 256.617C119.877 255.151 118.678 253.72 117.538 252.324C116.421 250.927 115.432 249.682 114.571 248.588C113.779 249.449 113.093 250.473 112.511 251.66C111.952 252.824 111.673 254.29 111.673 256.059C111.673 259.177 112.604 261.714 114.466 263.669C116.351 265.624 118.957 266.601 122.285 266.601ZM143.266 271.698C141.59 271.698 139.949 271.442 138.344 270.93C136.738 270.418 134.992 269.499 133.107 268.172C131.292 269.429 129.139 270.383 126.649 271.035C124.159 271.71 121.576 272.047 118.899 272.047C116.223 272.047 113.744 271.768 111.464 271.209C109.183 270.674 107.216 269.836 105.564 268.696C103.912 267.556 102.608 266.089 101.654 264.297C100.723 262.482 100.258 260.341 100.258 257.874C100.258 255.687 100.607 253.813 101.305 252.254C102.003 250.671 102.888 249.356 103.958 248.309C105.029 247.239 106.227 246.389 107.554 245.761C108.88 245.109 110.16 244.609 111.394 244.26C109.648 241.723 108.264 239.279 107.24 236.929C106.216 234.555 105.704 232.146 105.704 229.703C105.704 227.561 106.111 225.607 106.925 223.838C107.763 222.069 108.927 220.568 110.416 219.335C111.906 218.101 113.709 217.147 115.827 216.472C117.968 215.797 120.342 215.46 122.949 215.46C127.696 215.46 131.304 216.553 133.771 218.741C136.261 220.929 137.506 223.873 137.506 227.573C137.506 230.855 136.482 233.752 134.434 236.265C132.409 238.779 129.267 240.676 125.008 241.956C125.893 243.096 126.87 244.329 127.941 245.656C129.035 246.959 130.152 248.286 131.292 249.636C132.456 250.962 133.631 252.289 134.818 253.615C136.005 254.919 137.168 256.152 138.309 257.316C139.123 255.966 139.682 254.546 139.984 253.057C140.31 251.567 140.473 250.229 140.473 249.042C140.473 248.391 140.392 247.89 140.229 247.541C140.089 247.192 139.752 246.948 139.216 246.808L133.91 245.656V240.385H153.32V245.656L149.689 246.773C149.177 246.913 148.851 247.145 148.712 247.471C148.572 247.774 148.456 248.216 148.363 248.798C147.92 250.962 147.176 253.057 146.128 255.081C145.081 257.083 143.603 258.91 141.695 260.562C142.765 261.516 143.743 262.296 144.627 262.901C145.512 263.483 146.373 263.925 147.211 264.228C148.048 264.53 148.921 264.74 149.829 264.856C150.736 264.949 151.76 264.996 152.901 264.996V270.092C151.597 270.535 150.05 270.907 148.258 271.209C146.466 271.535 144.802 271.698 143.266 271.698ZM199.089 255.57C199.089 257.525 198.716 259.503 197.972 261.505C197.227 263.483 196.028 265.263 194.376 266.846C192.747 268.405 190.594 269.685 187.918 270.686C185.265 271.663 182.053 272.152 178.283 272.152C174.676 272.152 171.278 271.733 168.09 270.895C164.901 270.057 162.155 269.092 159.851 267.998C159.781 266.741 159.758 265.426 159.781 264.053C159.828 262.657 159.886 261.295 159.956 259.969C160.049 258.619 160.165 257.327 160.305 256.094C160.468 254.837 160.642 253.697 160.828 252.673H168.334L169.695 261.714C169.788 262.249 169.94 262.738 170.149 263.18C170.359 263.623 170.696 264.03 171.162 264.402C171.86 265.031 172.872 265.636 174.199 266.217C175.525 266.799 176.991 267.09 178.597 267.09C180.901 267.09 182.693 266.45 183.973 265.17C185.276 263.89 185.928 262.215 185.928 260.143C185.928 258.677 185.614 257.374 184.986 256.233C184.38 255.093 183.543 254.057 182.472 253.127C181.425 252.196 180.18 251.323 178.737 250.508C177.317 249.671 175.816 248.844 174.234 248.03C172.418 247.076 170.661 246.11 168.962 245.132C167.263 244.132 165.774 243.015 164.494 241.781C163.214 240.524 162.178 239.07 161.387 237.417C160.619 235.742 160.235 233.764 160.235 231.483C160.235 229.202 160.642 227.084 161.457 225.129C162.295 223.151 163.528 221.452 165.157 220.033C166.81 218.59 168.881 217.461 171.371 216.647C173.861 215.832 176.759 215.425 180.063 215.425C182.833 215.425 185.637 215.692 188.476 216.228C191.316 216.763 193.783 217.461 195.877 218.322C196.063 220.626 196.075 223.047 195.912 225.583C195.772 228.097 195.516 230.471 195.144 232.705H187.848L186.382 224.78C186.242 224.105 186.056 223.547 185.823 223.105C185.614 222.663 185.3 222.29 184.881 221.988C184.252 221.522 183.426 221.15 182.402 220.871C181.402 220.591 180.401 220.452 179.4 220.452C177.306 220.452 175.665 221.045 174.478 222.232C173.314 223.396 172.732 224.932 172.732 226.84C172.732 228.167 173 229.33 173.535 230.331C174.071 231.332 174.827 232.251 175.804 233.089C176.805 233.927 178.027 234.741 179.47 235.532C180.913 236.324 182.53 237.185 184.322 238.116C186.324 239.14 188.22 240.222 190.012 241.362C191.804 242.503 193.364 243.759 194.69 245.132C196.04 246.505 197.111 248.053 197.902 249.775C198.693 251.474 199.089 253.406 199.089 255.57Z" fill="#50DD8E"/>
<path d="M85.8065 262.098L82.9382 261.219L82.9231 261.268L82.9097 261.318L85.8065 262.098ZM89.2625 250.823L89.6714 247.851L87.1424 247.503L86.3942 249.943L89.2625 250.823ZM95.8604 251.73H98.8604V249.115L96.2692 248.758L95.8604 251.73ZM95.6858 261.086L98.6839 261.192V261.192L95.6858 261.086ZM94.464 271V274H96.8999L97.4001 271.616L94.464 271ZM51.1069 271H48.1069V274H51.1069V271ZM51.1069 265.973L50.5552 263.024L48.1069 263.482V265.973H51.1069ZM56.5178 264.961L56.0038 262.005L55.9849 262.008L55.9661 262.012L56.5178 264.961ZM57.7396 264.332L60.0174 266.285L60.0505 266.246L60.0822 266.206L57.7396 264.332ZM57.7396 223.454L55.397 225.328L55.4288 225.368L55.4619 225.406L57.7396 223.454ZM56.5527 222.791L55.9862 225.737L56.0011 225.739L56.0161 225.742L56.5527 222.791ZM51.1069 221.743H48.1069V224.221L50.5404 224.689L51.1069 221.743ZM51.1069 216.472V213.472H48.1069V216.472H51.1069ZM80.2211 216.472H83.2211V213.472H80.2211V216.472ZM80.2211 221.743L80.6979 224.705L83.2211 224.299V221.743H80.2211ZM73.0647 222.895L72.5879 219.933L72.5693 219.936L72.5507 219.94L73.0647 222.895ZM71.8429 223.524L74.1207 225.476L74.1207 225.476L71.8429 223.524ZM71.424 265.24H68.424V268.24H71.424V265.24ZM81.2335 264.996L81.6848 267.961L81.7109 267.958L81.7369 267.953L81.2335 264.996ZM83.7818 264.367L84.8588 267.167L84.8884 267.156L84.9177 267.144L83.7818 264.367ZM85.0385 263.529L82.9172 261.408L82.8807 261.445L82.8454 261.482L85.0385 263.529ZM88.6748 262.977L92.1308 251.702L86.3942 249.943L82.9382 261.219L88.6748 262.977ZM88.8537 253.795L95.4515 254.702L96.2692 248.758L89.6714 247.851L88.8537 253.795ZM92.8604 251.73C92.8604 254.647 92.8029 257.73 92.6877 260.979L98.6839 261.192C98.8014 257.879 98.8604 254.725 98.8604 251.73H92.8604ZM92.6877 260.979C92.5776 264.084 92.1921 267.218 91.5279 270.384L97.4001 271.616C98.1322 268.126 98.5613 264.651 98.6839 261.192L92.6877 260.979ZM94.464 268H51.1069V274H94.464V268ZM54.1069 271V265.973H48.1069V271H54.1069ZM51.6586 268.922L57.0695 267.91L55.9661 262.012L50.5552 263.024L51.6586 268.922ZM57.0318 267.916C58.0668 267.736 59.1748 267.268 60.0174 266.285L55.4619 262.38C55.5916 262.229 55.7344 262.127 55.8527 262.066C55.9636 262.009 56.0266 262.001 56.0038 262.005L57.0318 267.916ZM60.0822 266.206C60.8667 265.226 61.1585 264.083 61.1585 263.006H55.1585C55.1585 263.013 55.1576 262.948 55.1931 262.836C55.2304 262.717 55.297 262.583 55.397 262.458L60.0822 266.206ZM61.1585 263.006V224.745H55.1585V263.006H61.1585ZM61.1585 224.745C61.1585 223.677 60.8694 222.495 60.0174 221.501L55.4619 225.406C55.3296 225.252 55.2458 225.087 55.2001 224.947C55.1572 224.814 55.1585 224.736 55.1585 224.745H61.1585ZM60.0822 221.58C59.2779 220.574 58.19 220.039 57.0894 219.839L56.0161 225.742C55.9943 225.738 55.8999 225.718 55.77 225.645C55.6342 225.569 55.503 225.46 55.397 225.328L60.0822 221.58ZM57.1193 219.845L51.6735 218.797L50.5404 224.689L55.9862 225.737L57.1193 219.845ZM54.1069 221.743V216.472H48.1069V221.743H54.1069ZM51.1069 219.472H80.2211V213.472H51.1069V219.472ZM77.2211 216.472V221.743H83.2211V216.472H77.2211ZM79.7443 218.781L72.5879 219.933L73.5415 225.857L80.6979 224.705L79.7443 218.781ZM72.5507 219.94C71.5157 220.12 70.4077 220.588 69.5651 221.571L74.1207 225.476C73.9909 225.627 73.8481 225.729 73.7299 225.79C73.6189 225.847 73.556 225.855 73.5787 225.851L72.5507 219.94ZM69.5651 221.571C68.7131 222.565 68.424 223.747 68.424 224.815H74.424C74.424 224.806 74.4254 224.884 74.3824 225.016C74.3368 225.157 74.2529 225.322 74.1207 225.476L69.5651 221.571ZM68.424 224.815V265.24H74.424V224.815H68.424ZM71.424 268.24H77.4633V262.24H71.424V268.24ZM77.4633 268.24C79.0109 268.24 80.4252 268.153 81.6848 267.961L80.7821 262.03C79.9007 262.164 78.8014 262.24 77.4633 262.24V268.24ZM81.7369 267.953C82.9095 267.754 83.983 267.504 84.8588 267.167L82.7049 261.567C82.3705 261.696 81.7451 261.865 80.7301 262.038L81.7369 267.953ZM84.9177 267.144C85.7675 266.796 86.567 266.289 87.2317 265.576L82.8454 261.482C82.8585 261.468 82.8202 261.519 82.6459 261.591L84.9177 267.144ZM87.1599 265.651C87.9678 264.843 88.44 263.856 88.7034 262.878L82.9097 261.318C82.8788 261.433 82.8528 261.484 82.8489 261.491C82.8463 261.496 82.8653 261.46 82.9172 261.408L87.1599 265.651ZM118.341 231.727L115.527 232.768L115.532 232.781L118.341 231.727ZM122.216 238.325L119.779 240.075L121.811 242.905L124.308 240.475L122.216 238.325ZM125.846 232.635L123 231.686L122.995 231.701L122.991 231.715L125.846 232.635ZM125.637 221.22L123.213 222.987L123.225 223.003L123.237 223.02L125.637 221.22ZM118.76 221.359L116.382 219.53L116.371 219.545L116.36 219.559L118.76 221.359ZM125.567 266.252L126.133 269.198L125.567 266.252ZM129.197 264.926L130.62 267.567L134.38 265.543L131.2 262.692L129.197 264.926ZM125.113 260.946L127.286 258.878L125.113 260.946ZM121.133 256.617L118.856 258.57L118.872 258.589L118.889 258.608L121.133 256.617ZM117.538 252.324L115.195 254.198L115.205 254.21L115.214 254.221L117.538 252.324ZM114.571 248.588L116.928 246.733L114.747 243.963L112.362 246.558L114.571 248.588ZM112.511 251.66L109.817 250.34L109.812 250.351L109.806 250.362L112.511 251.66ZM114.466 263.669L112.293 265.738L112.3 265.745L112.306 265.751L114.466 263.669ZM138.344 270.93L137.432 273.788L138.344 270.93ZM133.107 268.172L134.834 265.719L133.121 264.514L131.4 265.706L133.107 268.172ZM126.649 271.035L125.89 268.133L125.877 268.136L125.864 268.139L126.649 271.035ZM111.464 271.209L112.177 268.296L112.163 268.292L112.149 268.289L111.464 271.209ZM105.564 268.696L107.268 266.227H107.268L105.564 268.696ZM101.654 264.297L98.9847 265.666L98.9953 265.687L99.0062 265.707L101.654 264.297ZM101.305 252.254L104.043 253.48L104.047 253.472L104.05 253.465L101.305 252.254ZM103.958 248.309L106.056 250.454L106.068 250.442L106.08 250.43L103.958 248.309ZM107.554 245.761L108.838 248.472L108.857 248.463L108.877 248.453L107.554 245.761ZM111.394 244.26L112.211 247.146L116.237 246.007L113.865 242.559L111.394 244.26ZM107.24 236.929L104.485 238.117L104.489 238.127L107.24 236.929ZM106.925 223.838L104.214 222.554L104.207 222.568L104.201 222.583L106.925 223.838ZM110.416 219.335L112.33 221.645V221.645L110.416 219.335ZM115.827 216.472L114.925 213.611L114.916 213.614L115.827 216.472ZM133.771 218.741L131.78 220.986L131.791 220.995L133.771 218.741ZM134.434 236.265L132.108 234.37L132.103 234.377L132.098 234.383L134.434 236.265ZM125.008 241.956L124.145 239.083L119.959 240.341L122.638 243.794L125.008 241.956ZM127.941 245.656L125.606 247.54L125.624 247.563L125.643 247.585L127.941 245.656ZM131.292 249.636L129 251.572L129.018 251.593L129.037 251.614L131.292 249.636ZM134.818 253.615L132.582 255.616L132.591 255.625L132.6 255.635L134.818 253.615ZM138.309 257.316L136.166 259.415L138.877 262.181L140.877 258.866L138.309 257.316ZM139.984 253.057L137.054 252.416L137.049 252.438L137.044 252.46L139.984 253.057ZM140.229 247.541L137.443 248.655L137.475 248.733L137.51 248.81L140.229 247.541ZM139.216 246.808L139.974 243.905L139.914 243.889L139.853 243.876L139.216 246.808ZM133.91 245.656H130.91V248.075L133.274 248.588L133.91 245.656ZM133.91 240.385V237.385H130.91V240.385H133.91ZM153.32 240.385H156.32V237.385H153.32V240.385ZM153.32 245.656L154.202 248.523L156.32 247.872V245.656H153.32ZM149.689 246.773L150.478 249.667L150.525 249.655L150.571 249.64L149.689 246.773ZM148.712 247.471L151.436 248.728L151.453 248.691L151.469 248.653L148.712 247.471ZM148.363 248.798L151.302 249.398L151.315 249.335L151.325 249.272L148.363 248.798ZM146.128 255.081L148.786 256.472L148.79 256.466L148.793 256.46L146.128 255.081ZM141.695 260.562L139.731 258.294L137.15 260.53L139.699 262.802L141.695 260.562ZM144.627 262.901L142.933 265.377L142.956 265.392L142.978 265.407L144.627 262.901ZM147.211 264.228L146.192 267.049L147.211 264.228ZM149.829 264.856L149.447 267.832L149.485 267.836L149.523 267.84L149.829 264.856ZM152.901 264.996H155.901V261.996H152.901V264.996ZM152.901 270.092L153.865 272.933L155.901 272.242V270.092H152.901ZM148.258 271.209L147.758 268.251L147.74 268.254L147.721 268.258L148.258 271.209ZM114.398 226.7C114.398 228.741 114.787 230.768 115.527 232.768L121.154 230.687C120.637 229.289 120.398 227.965 120.398 226.7H114.398ZM115.532 232.781C116.301 234.833 117.779 237.289 119.779 240.075L124.653 236.575C122.743 233.915 121.637 231.973 121.15 230.674L115.532 232.781ZM124.308 240.475C126.366 238.472 127.861 236.164 128.702 233.555L122.991 231.715C122.482 233.295 121.556 234.781 120.123 236.175L124.308 240.475ZM128.692 233.584C129.475 231.234 129.893 228.923 129.893 226.665H123.893C123.893 228.178 123.613 229.846 123 231.686L128.692 233.584ZM129.893 226.665C129.893 223.96 129.47 221.33 128.037 219.42L123.237 223.02C123.479 223.343 123.893 224.344 123.893 226.665H129.893ZM128.061 219.452C126.722 217.616 124.788 216.544 122.46 216.544V222.544C122.738 222.544 122.923 222.589 123.213 222.987L128.061 219.452ZM122.46 216.544C119.999 216.544 117.885 217.576 116.382 219.53L121.138 223.188C121.497 222.722 121.849 222.544 122.46 222.544V216.544ZM116.36 219.559C114.9 221.506 114.398 224.038 114.398 226.7H120.398C120.398 224.662 120.804 223.633 121.16 223.159L116.36 219.559ZM122.285 269.601C123.495 269.601 124.782 269.458 126.133 269.198L125 263.306C123.931 263.512 123.031 263.601 122.285 263.601V269.601ZM126.133 269.198C127.675 268.902 129.172 268.347 130.62 267.567L127.775 262.284C126.803 262.808 125.879 263.137 125 263.306L126.133 269.198ZM131.2 262.692C129.915 261.54 128.61 260.269 127.286 258.878L122.94 263.014C124.362 264.509 125.781 265.892 127.195 267.16L131.2 262.692ZM127.286 258.878C125.937 257.46 124.634 256.043 123.378 254.627L118.889 258.608C120.193 260.078 121.543 261.547 122.94 263.014L127.286 258.878ZM123.411 254.665C122.169 253.216 120.986 251.803 119.861 250.426L115.214 254.221C116.371 255.637 117.585 257.087 118.856 258.57L123.411 254.665ZM119.88 250.45C118.767 249.058 117.783 247.819 116.928 246.733L112.213 250.444C113.08 251.545 114.075 252.797 115.195 254.198L119.88 250.45ZM112.362 246.558C111.352 247.657 110.509 248.928 109.817 250.34L115.205 252.981C115.676 252.019 116.207 251.242 116.78 250.618L112.362 246.558ZM109.806 250.362C108.995 252.052 108.673 253.998 108.673 256.059H114.673C114.673 254.582 114.91 253.596 115.215 252.959L109.806 250.362ZM108.673 256.059C108.673 259.819 109.818 263.139 112.293 265.738L116.638 261.6C115.39 260.29 114.673 258.536 114.673 256.059H108.673ZM112.306 265.751C114.88 268.42 118.339 269.601 122.285 269.601V263.601C119.576 263.601 117.822 262.827 116.625 261.587L112.306 265.751ZM143.266 268.698C141.901 268.698 140.568 268.491 139.255 268.072L137.432 273.788C139.331 274.394 141.279 274.698 143.266 274.698V268.698ZM139.255 268.072C138.025 267.68 136.554 266.93 134.834 265.719L131.381 270.626C133.43 272.068 135.451 273.157 137.432 273.788L139.255 268.072ZM131.4 265.706C129.916 266.733 128.096 267.555 125.89 268.133L127.409 273.937C130.183 273.211 132.668 272.125 134.815 270.639L131.4 265.706ZM125.864 268.139C123.639 268.742 121.321 269.047 118.899 269.047V275.047C121.831 275.047 124.678 274.677 127.434 273.93L125.864 268.139ZM118.899 269.047C116.431 269.047 114.195 268.79 112.177 268.296L110.75 274.123C113.294 274.746 116.015 275.047 118.899 275.047V269.047ZM112.149 268.289C110.173 267.825 108.565 267.122 107.268 266.227L103.86 271.165C105.868 272.551 108.193 273.523 110.778 274.13L112.149 268.289ZM107.268 266.227C106.015 265.362 105.034 264.261 104.302 262.887L99.0062 265.707C100.183 267.918 101.808 269.749 103.86 271.165L107.268 266.227ZM104.324 262.929C103.651 261.617 103.258 259.964 103.258 257.874H97.2578C97.2578 260.719 97.7957 263.348 98.9847 265.666L104.324 262.929ZM103.258 257.874C103.258 255.995 103.559 254.561 104.043 253.48L98.567 251.028C97.655 253.065 97.2578 255.378 97.2578 257.874H103.258ZM104.05 253.465C104.617 252.178 105.298 251.196 106.056 250.454L101.86 246.165C100.478 247.517 99.3891 249.164 98.5603 251.043L104.05 253.465ZM106.08 250.43C106.915 249.595 107.832 248.948 108.838 248.472L106.27 243.05C104.622 243.83 103.143 244.882 101.837 246.188L106.08 250.43ZM108.877 248.453C110.065 247.87 111.175 247.439 112.211 247.146L110.577 241.373C109.145 241.778 107.696 242.348 106.231 243.068L108.877 248.453ZM113.865 242.559C112.208 240.15 110.924 237.874 109.99 235.731L104.489 238.127C105.603 240.684 107.089 243.296 108.922 245.96L113.865 242.559ZM109.994 235.74C109.123 233.72 108.704 231.714 108.704 229.703H102.704C102.704 232.578 103.309 235.39 104.485 238.117L109.994 235.74ZM108.704 229.703C108.704 227.951 109.034 226.43 109.65 225.093L104.201 222.583C103.187 224.783 102.704 227.172 102.704 229.703H108.704ZM109.637 225.122C110.289 223.745 111.182 222.595 112.33 221.645L108.503 217.024C106.672 218.541 105.237 220.393 104.214 222.554L109.637 225.122ZM112.33 221.645C113.482 220.691 114.932 219.906 116.738 219.33L114.916 213.614C112.487 214.388 110.329 215.512 108.503 217.024L112.33 221.645ZM116.729 219.333C118.536 218.764 120.6 218.46 122.949 218.46V212.46C120.084 212.46 117.401 212.83 114.925 213.611L116.729 219.333ZM122.949 218.46C127.281 218.46 130.061 219.461 131.78 220.986L135.761 216.497C132.546 213.646 128.112 212.46 122.949 212.46V218.46ZM131.791 220.995C133.553 222.543 134.506 224.624 134.506 227.573H140.506C140.506 223.122 138.969 219.315 135.751 216.487L131.791 220.995ZM134.506 227.573C134.506 230.173 133.714 232.399 132.108 234.37L136.76 238.16C139.249 235.105 140.506 231.536 140.506 227.573H134.506ZM132.098 234.383C130.571 236.278 128.037 237.913 124.145 239.083L125.872 244.829C130.498 243.438 134.247 241.28 136.77 238.147L132.098 234.383ZM122.638 243.794C123.536 244.952 124.526 246.201 125.606 247.54L130.275 243.772C129.215 242.458 128.25 241.24 127.379 240.117L122.638 243.794ZM125.643 247.585C126.739 248.89 127.858 250.219 129 251.572L133.584 247.7C132.445 246.352 131.33 245.028 130.239 243.727L125.643 247.585ZM129.037 251.614C130.207 252.948 131.389 254.282 132.582 255.616L137.054 251.615C135.873 250.296 134.704 248.976 133.547 247.657L129.037 251.614ZM132.6 255.635C133.809 256.963 134.998 258.224 136.166 259.415L140.451 255.216C139.339 254.08 138.2 252.874 137.036 251.595L132.6 255.635ZM140.877 258.866C141.863 257.233 142.551 255.492 142.924 253.654L137.044 252.46C136.813 253.6 136.384 254.699 135.74 255.766L140.877 258.866ZM142.915 253.698C143.275 252.054 143.473 250.495 143.473 249.042H137.473C137.473 249.963 137.346 251.081 137.054 252.416L142.915 253.698ZM143.473 249.042C143.473 248.215 143.382 247.203 142.947 246.272L137.51 248.81C137.476 248.736 137.459 248.684 137.453 248.661C137.446 248.638 137.447 248.636 137.451 248.66C137.46 248.714 137.473 248.835 137.473 249.042H143.473ZM143.014 246.427C142.376 244.833 140.975 244.167 139.974 243.905L138.459 249.711C138.478 249.716 138.326 249.681 138.111 249.526C137.872 249.352 137.607 249.063 137.443 248.655L143.014 246.427ZM139.853 243.876L134.547 242.724L133.274 248.588L138.58 249.74L139.853 243.876ZM136.91 245.656V240.385H130.91V245.656H136.91ZM133.91 243.385H153.32V237.385H133.91V243.385ZM150.32 240.385V245.656H156.32V240.385H150.32ZM152.437 242.789L148.807 243.906L150.571 249.64L154.202 248.523L152.437 242.789ZM148.9 243.879C147.956 244.136 146.605 244.771 145.954 246.29L151.469 248.653C151.097 249.52 150.399 249.689 150.478 249.667L148.9 243.879ZM145.988 246.214C145.678 246.886 145.509 247.645 145.4 248.324L151.325 249.272C151.36 249.052 151.394 248.896 151.421 248.793C151.45 248.684 151.46 248.674 151.436 248.728L145.988 246.214ZM145.423 248.197C145.038 250.082 144.388 251.916 143.464 253.703L148.793 256.46C149.963 254.197 150.803 251.842 151.302 249.398L145.423 248.197ZM143.47 253.691C142.617 255.322 141.388 256.859 139.731 258.294L143.659 262.83C145.818 260.96 147.545 258.844 148.786 256.472L143.47 253.691ZM139.699 262.802C140.835 263.815 141.915 264.68 142.933 265.377L146.321 260.425C145.571 259.912 144.696 259.218 143.691 258.323L139.699 262.802ZM142.978 265.407C144.024 266.095 145.095 266.653 146.192 267.049L148.229 261.406C147.65 261.197 146.999 260.871 146.276 260.395L142.978 265.407ZM146.192 267.049C147.241 267.428 148.328 267.688 149.447 267.832L150.21 261.88C149.514 261.791 148.856 261.632 148.229 261.406L146.192 267.049ZM149.523 267.84C150.553 267.946 151.682 267.996 152.901 267.996V261.996C151.839 261.996 150.919 261.952 150.135 261.872L149.523 267.84ZM149.901 264.996V270.092H155.901V264.996H149.901ZM151.937 267.251C150.824 267.629 149.439 267.967 147.758 268.251L148.757 274.168C150.66 273.846 152.371 273.44 153.865 272.933L151.937 267.251ZM147.721 268.258C146.075 268.557 144.592 268.698 143.266 268.698V274.698C145.011 274.698 146.857 274.513 148.794 274.161L147.721 268.258ZM197.972 261.505L200.779 262.562L200.783 262.551L197.972 261.505ZM194.376 266.846L196.45 269.013L196.451 269.012L194.376 266.846ZM187.918 270.686L188.955 273.501L188.962 273.498L188.969 273.496L187.918 270.686ZM168.09 270.895L168.852 267.994L168.09 270.895ZM159.851 267.998L156.856 268.164L156.954 269.944L158.564 270.708L159.851 267.998ZM159.781 264.053L156.783 263.953L156.782 263.978L156.782 264.002L159.781 264.053ZM159.956 259.969L156.963 259.762L156.961 259.787L156.96 259.811L159.956 259.969ZM160.305 256.094L157.33 255.708L157.327 255.732L157.324 255.756L160.305 256.094ZM160.828 252.673V249.673H158.325L157.877 252.136L160.828 252.673ZM168.334 252.673L171.3 252.226L170.916 249.673H168.334V252.673ZM169.695 261.714L166.729 262.161L166.734 262.195L166.74 262.228L169.695 261.714ZM170.149 263.18L172.86 261.896L170.149 263.18ZM171.162 264.402L173.168 262.172L173.104 262.114L173.036 262.06L171.162 264.402ZM174.199 266.217L175.404 263.47L174.199 266.217ZM183.973 265.17L181.871 263.03L181.861 263.039L181.852 263.049L183.973 265.17ZM184.986 256.233L182.335 257.64L182.347 257.661L182.358 257.681L184.986 256.233ZM182.472 253.127L180.479 255.369L180.491 255.38L180.504 255.39L182.472 253.127ZM178.737 250.508L177.212 253.092L177.237 253.107L177.262 253.121L178.737 250.508ZM174.234 248.03L172.838 250.685L172.849 250.691L172.861 250.697L174.234 248.03ZM168.962 245.132L167.44 247.717L167.453 247.725L167.466 247.733L168.962 245.132ZM164.494 241.781L162.392 243.922L162.402 243.932L162.412 243.941L164.494 241.781ZM161.387 237.417L158.66 238.667L158.67 238.69L158.681 238.713L161.387 237.417ZM161.457 225.129L158.694 223.959L158.691 223.968L158.688 223.976L161.457 225.129ZM165.157 220.033L167.128 222.294L167.13 222.292L165.157 220.033ZM171.371 216.647L172.304 219.498V219.498L171.371 216.647ZM188.476 216.228L187.921 219.176L187.921 219.176L188.476 216.228ZM195.877 218.322L198.867 218.081L198.719 216.247L197.018 215.548L195.877 218.322ZM195.912 225.583L192.918 225.391L192.917 225.404L192.917 225.417L195.912 225.583ZM195.144 232.705V235.705H197.685L198.103 233.198L195.144 232.705ZM187.848 232.705L184.898 233.251L185.352 235.705H187.848V232.705ZM186.382 224.78L189.332 224.235L189.326 224.203L189.32 224.173L186.382 224.78ZM185.823 223.105L183.112 224.389L183.139 224.446L183.169 224.502L185.823 223.105ZM184.881 221.988L183.095 224.398L183.11 224.409L183.124 224.42L184.881 221.988ZM182.402 220.871L181.596 223.76L181.604 223.763L181.613 223.765L182.402 220.871ZM174.478 222.232L172.357 220.111L172.357 220.111L174.478 222.232ZM173.535 230.331L170.89 231.746L173.535 230.331ZM175.804 233.089L173.852 235.366L173.865 235.378L173.879 235.389L175.804 233.089ZM179.47 235.532L178.027 238.163L179.47 235.532ZM184.322 238.116L182.939 240.778L182.948 240.782L182.956 240.786L184.322 238.116ZM194.69 245.132L192.533 247.217L192.542 247.226L192.551 247.235L194.69 245.132ZM197.902 249.775L195.176 251.028L195.179 251.035L195.182 251.042L197.902 249.775ZM196.089 255.57C196.089 257.136 195.792 258.761 195.16 260.459L200.783 262.551C201.641 260.246 202.089 257.914 202.089 255.57H196.089ZM195.164 260.448C194.59 261.972 193.656 263.381 192.301 264.679L196.451 269.012C198.4 267.145 199.864 264.994 200.779 262.562L195.164 260.448ZM192.302 264.679C191.034 265.892 189.26 266.981 186.867 267.876L188.969 273.496C191.928 272.389 194.46 270.918 196.45 269.013L192.302 264.679ZM186.881 267.871C184.65 268.693 181.81 269.152 178.283 269.152V275.152C182.296 275.152 185.88 274.634 188.955 273.501L186.881 267.871ZM178.283 269.152C174.909 269.152 171.769 268.76 168.852 267.994L167.327 273.797C170.786 274.706 174.442 275.152 178.283 275.152V269.152ZM168.852 267.994C165.795 267.19 163.233 266.282 161.138 265.288L158.564 270.708C161.077 271.901 164.008 272.925 167.327 273.797L168.852 267.994ZM162.846 267.831C162.781 266.653 162.759 265.411 162.781 264.104L156.782 264.002C156.757 265.441 156.781 266.829 156.856 268.164L162.846 267.831ZM162.779 264.153C162.825 262.775 162.883 261.433 162.952 260.126L156.96 259.811C156.889 261.158 156.83 262.539 156.783 263.953L162.779 264.153ZM162.949 260.175C163.039 258.865 163.151 257.617 163.286 256.431L157.324 255.756C157.179 257.037 157.059 258.373 156.963 259.762L162.949 260.175ZM163.28 256.479C163.438 255.263 163.605 254.174 163.78 253.209L157.877 252.136C157.68 253.22 157.498 254.411 157.33 255.708L163.28 256.479ZM160.828 255.673H168.334V249.673H160.828V255.673ZM165.367 253.119L166.729 262.161L172.662 261.267L171.3 252.226L165.367 253.119ZM166.74 262.228C166.874 263.001 167.101 263.753 167.438 264.465L172.86 261.896C172.779 261.724 172.703 261.498 172.651 261.2L166.74 262.228ZM167.438 264.465C167.88 265.399 168.543 266.149 169.287 266.745L173.036 262.06C172.85 261.911 172.837 261.846 172.86 261.896L167.438 264.465ZM169.155 266.632C170.183 267.558 171.515 268.316 172.994 268.965L175.404 263.47C174.229 262.955 173.536 262.503 173.168 262.172L169.155 266.632ZM172.994 268.965C174.739 269.731 176.622 270.09 178.597 270.09V264.09C177.361 264.09 176.311 263.868 175.404 263.47L172.994 268.965ZM178.597 270.09C181.469 270.09 184.109 269.277 186.094 267.292L181.852 263.049C181.277 263.623 180.333 264.09 178.597 264.09V270.09ZM186.075 267.311C188.032 265.389 188.928 262.902 188.928 260.143H182.928C182.928 261.527 182.521 262.391 181.871 263.03L186.075 267.311ZM188.928 260.143C188.928 258.236 188.515 256.423 187.613 254.786L182.358 257.681C182.713 258.325 182.928 259.119 182.928 260.143H188.928ZM187.636 254.827C186.842 253.331 185.762 252.011 184.441 250.863L180.504 255.39C181.324 256.104 181.919 256.855 182.335 257.64L187.636 254.827ZM184.465 250.884C183.233 249.789 181.807 248.797 180.212 247.896L177.262 253.121C178.552 253.849 179.617 254.602 180.479 255.369L184.465 250.884ZM180.262 247.925C178.788 247.055 177.236 246.201 175.606 245.362L172.861 250.697C174.396 251.487 175.846 252.286 177.212 253.092L180.262 247.925ZM175.629 245.374C173.846 244.437 172.123 243.49 170.458 242.532L167.466 247.733C169.2 248.73 170.99 249.714 172.838 250.685L175.629 245.374ZM170.485 242.547C168.967 241.653 167.669 240.675 166.576 239.621L162.412 243.941C163.879 245.354 165.56 246.61 167.44 247.717L170.485 242.547ZM166.596 239.64C165.57 238.633 164.737 237.466 164.093 236.122L158.681 238.713C159.62 240.673 160.858 242.415 162.392 243.922L166.596 239.64ZM164.114 236.167C163.563 234.966 163.235 233.432 163.235 231.483H157.235C157.235 234.095 157.675 236.518 158.66 238.667L164.114 236.167ZM163.235 231.483C163.235 229.567 163.575 227.845 164.226 226.283L158.688 223.976C157.709 226.324 157.235 228.837 157.235 231.483H163.235ZM164.219 226.299C164.878 224.743 165.84 223.417 167.128 222.294L163.186 217.771C161.216 219.488 159.711 221.559 158.694 223.959L164.219 226.299ZM167.13 222.292C168.426 221.161 170.124 220.211 172.304 219.498L170.438 213.795C167.638 214.711 165.193 216.019 163.184 217.773L167.13 222.292ZM172.304 219.498C174.426 218.804 176.996 218.425 180.063 218.425V212.425C176.521 212.425 173.296 212.86 170.438 213.795L172.304 219.498ZM180.063 218.425C182.638 218.425 185.257 218.673 187.921 219.176L189.032 213.28C186.018 212.711 183.027 212.425 180.063 212.425V218.425ZM187.921 219.176C190.611 219.683 192.874 220.331 194.736 221.097L197.018 215.548C194.691 214.591 192.02 213.843 189.032 213.28L187.921 219.176ZM192.887 218.564C193.06 220.71 193.073 222.985 192.918 225.391L198.906 225.776C199.077 223.108 199.066 220.542 198.867 218.081L192.887 218.564ZM192.917 225.417C192.782 227.833 192.537 230.097 192.185 232.212L198.103 233.198C198.495 230.844 198.762 228.361 198.907 225.75L192.917 225.417ZM195.144 229.705H187.848V235.705H195.144V229.705ZM190.798 232.159L189.332 224.235L183.432 225.326L184.898 233.251L190.798 232.159ZM189.32 224.173C189.143 223.319 188.881 222.472 188.478 221.707L183.169 224.502C183.232 224.622 183.342 224.892 183.444 225.388L189.32 224.173ZM188.535 221.82C188.096 220.896 187.442 220.137 186.637 219.556L183.124 224.42C183.136 224.428 183.142 224.434 183.143 224.435C183.145 224.436 183.142 224.434 183.138 224.428C183.133 224.423 183.128 224.416 183.123 224.408C183.118 224.401 183.114 224.394 183.112 224.389L188.535 221.82ZM186.666 219.577C185.653 218.826 184.455 218.321 183.192 217.976L181.613 223.765C182.398 223.979 182.852 224.218 183.095 224.398L186.666 219.577ZM183.209 217.981C181.955 217.631 180.684 217.452 179.4 217.452V223.452C180.118 223.452 180.848 223.551 181.596 223.76L183.209 217.981ZM179.4 217.452C176.718 217.452 174.238 218.229 172.357 220.111L176.599 224.353C177.092 223.861 177.893 223.452 179.4 223.452V217.452ZM172.357 220.111C170.54 221.927 169.732 224.273 169.732 226.84H175.732C175.732 225.59 176.088 224.864 176.599 224.353L172.357 220.111ZM169.732 226.84C169.732 228.577 170.085 230.242 170.89 231.746L176.181 228.916C175.915 228.419 175.732 227.756 175.732 226.84H169.732ZM170.89 231.746C171.623 233.116 172.63 234.319 173.852 235.366L177.757 230.811C177.024 230.183 176.519 229.548 176.181 228.916L170.89 231.746ZM173.879 235.389C175.062 236.38 176.455 237.301 178.027 238.163L180.912 232.902C179.599 232.182 178.548 231.473 177.73 230.788L173.879 235.389ZM178.027 238.163C179.494 238.967 181.132 239.839 182.939 240.778L185.705 235.453C183.929 234.531 182.332 233.68 180.912 232.902L178.027 238.163ZM182.956 240.786C184.879 241.77 186.693 242.806 188.402 243.893L191.623 238.831C189.747 237.638 187.769 236.509 185.689 235.445L182.956 240.786ZM188.402 243.893C190.017 244.921 191.387 246.031 192.533 247.217L196.848 243.048C195.34 241.487 193.592 240.084 191.623 238.831L188.402 243.893ZM192.551 247.235C193.661 248.365 194.532 249.626 195.176 251.028L200.628 248.523C199.689 246.48 198.419 244.646 196.83 243.029L192.551 247.235ZM195.182 251.042C195.762 252.287 196.089 253.776 196.089 255.57H202.089C202.089 253.036 201.624 250.661 200.621 248.509L195.182 251.042Z" fill="#FF7474"/>
</g>
<g filter="url(#filter5_d)">
<path d="M215.875 246.516C215.344 246.953 215.047 247.734 214.984 248.859C214.953 249.953 215.141 251.078 215.547 252.234C215.984 253.359 216.641 254.359 217.516 255.234C218.391 256.109 219.484 256.547 220.797 256.547C221.641 256.547 222.359 256.344 222.953 255.938C223.578 255.531 224.078 255.031 224.453 254.438C224.859 253.812 225.156 253.125 225.344 252.375C225.531 251.625 225.625 250.891 225.625 250.172C225.625 249.141 225.422 248.281 225.016 247.594C224.641 246.906 224.125 246.312 223.469 245.812C222.844 245.281 222.109 244.844 221.266 244.5C220.453 244.125 219.625 243.75 218.781 243.375C218 243.062 217.062 242.672 215.969 242.203C214.875 241.703 213.828 241.062 212.828 240.281C211.828 239.469 210.969 238.484 210.25 237.328C209.562 236.141 209.219 234.688 209.219 232.969C209.219 231.844 209.516 230.703 210.109 229.547C210.703 228.391 211.547 227.344 212.641 226.406C213.734 225.438 215.047 224.656 216.578 224.062C218.141 223.469 219.891 223.172 221.828 223.172C223.734 223.172 225.281 223.344 226.469 223.688C227.656 224.031 228.578 224.484 229.234 225.047C229.891 225.578 230.328 226.172 230.547 226.828C230.797 227.453 230.922 228.047 230.922 228.609C230.922 229.172 230.75 229.75 230.406 230.344C230.062 230.906 229.656 231.438 229.188 231.938C228.719 232.406 228.234 232.828 227.734 233.203C227.234 233.547 226.828 233.781 226.516 233.906C226.672 233.5 226.828 232.938 226.984 232.219C227.141 231.5 227.094 230.781 226.844 230.062C226.625 229.344 226.078 228.719 225.203 228.188C224.359 227.656 222.984 227.391 221.078 227.391C219.984 227.391 218.922 227.562 217.891 227.906C216.859 228.25 215.938 228.703 215.125 229.266C214.344 229.797 213.719 230.406 213.25 231.094C212.781 231.781 212.547 232.484 212.547 233.203C212.547 233.891 212.781 234.531 213.25 235.125C213.75 235.688 214.406 236.234 215.219 236.766C216.062 237.266 217.016 237.766 218.078 238.266C219.172 238.766 220.312 239.266 221.5 239.766C222.656 240.266 223.797 240.812 224.922 241.406C226.047 241.969 227.047 242.625 227.922 243.375C228.828 244.125 229.547 244.969 230.078 245.906C230.609 246.844 230.875 247.922 230.875 249.141C230.875 250.453 230.625 251.719 230.125 252.938C229.656 254.125 228.969 255.172 228.062 256.078C227.188 256.984 226.109 257.703 224.828 258.234C223.547 258.797 222.094 259.078 220.469 259.078C219.031 259.078 217.672 258.844 216.391 258.375C215.109 257.906 213.984 257.297 213.016 256.547C212.078 255.797 211.328 254.969 210.766 254.062C210.203 253.156 209.922 252.266 209.922 251.391C209.922 250.453 210.125 249.656 210.531 249C210.969 248.344 211.5 247.828 212.125 247.453C212.75 247.047 213.391 246.766 214.047 246.609C214.734 246.453 215.344 246.422 215.875 246.516ZM244.516 237.562C244.516 237.219 244.719 236.969 245.125 236.812C245.562 236.625 246.016 236.531 246.484 236.531C246.984 236.531 247.438 236.625 247.844 236.812C248.25 236.969 248.438 237.188 248.406 237.469C248.375 237.688 248.344 238.125 248.312 238.781C248.281 239.406 248.234 240.156 248.172 241.031C248.141 241.906 248.094 242.844 248.031 243.844C247.969 244.844 247.906 245.828 247.844 246.797C247.812 247.734 247.781 248.609 247.75 249.422C247.75 250.234 247.75 250.859 247.75 251.297C247.75 251.859 247.781 252.375 247.844 252.844C247.906 253.25 247.984 253.656 248.078 254.062C248.172 254.438 248.312 254.703 248.5 254.859C248.25 254.953 247.984 255.016 247.703 255.047C247.453 255.078 247.219 255.109 247 255.141C246.75 255.172 246.5 255.188 246.25 255.188C245.719 255.188 245.266 255.078 244.891 254.859C244.547 254.641 244.375 254.188 244.375 253.5C244.375 253.156 244.391 252.656 244.422 252C244.484 251.344 244.547 250.641 244.609 249.891C244.391 250.547 244.125 251.219 243.812 251.906C243.5 252.594 243.109 253.203 242.641 253.734C242.203 254.266 241.703 254.703 241.141 255.047C240.578 255.391 239.938 255.562 239.219 255.562C238.406 255.562 237.656 255.391 236.969 255.047C236.312 254.703 235.734 254.219 235.234 253.594C234.734 252.938 234.359 252.141 234.109 251.203C233.859 250.266 233.766 249.188 233.828 247.969C233.828 247.031 233.844 246.031 233.875 244.969C233.906 244.062 233.953 243.016 234.016 241.828C234.078 240.641 234.188 239.406 234.344 238.125C234.375 238 234.594 237.844 235 237.656C235.406 237.469 235.859 237.312 236.359 237.188C236.859 237.062 237.344 237.016 237.812 237.047C238.281 237.078 238.625 237.266 238.844 237.609C238.688 238.172 238.531 238.844 238.375 239.625C238.219 240.375 238.078 241.156 237.953 241.969C237.828 242.781 237.734 243.578 237.672 244.359C237.609 245.141 237.578 245.859 237.578 246.516C237.578 247.109 237.609 247.766 237.672 248.484C237.734 249.172 237.844 249.828 238 250.453C238.188 251.047 238.438 251.547 238.75 251.953C239.094 252.359 239.531 252.562 240.062 252.562C240.656 252.562 241.172 252.312 241.609 251.812C242.078 251.281 242.469 250.609 242.781 249.797C243.094 248.984 243.359 248.062 243.578 247.031C243.797 245.969 243.969 244.922 244.094 243.891C244.25 242.859 244.344 241.875 244.375 240.938C244.438 239.969 244.484 239.156 244.516 238.5V237.562ZM260.828 236.438C261.703 236.438 262.516 236.688 263.266 237.188C264.016 237.688 264.656 238.344 265.188 239.156C265.719 239.969 266.141 240.906 266.453 241.969C266.766 243 266.922 244.078 266.922 245.203C266.922 246.328 266.797 247.516 266.547 248.766C266.297 250.016 265.906 251.172 265.375 252.234C264.844 253.297 264.156 254.188 263.312 254.906C262.469 255.594 261.438 255.938 260.219 255.938C259.25 255.938 258.328 255.594 257.453 254.906C256.609 254.188 255.953 253.297 255.484 252.234C255.422 253.328 255.281 254.438 255.062 255.562C254.844 256.719 254.734 258.094 254.734 259.688C254.734 260.156 254.75 260.688 254.781 261.281C254.812 261.875 254.859 262.469 254.922 263.062C254.984 263.656 255.078 264.203 255.203 264.703C255.328 265.203 255.469 265.594 255.625 265.875C255.094 266.188 254.609 266.422 254.172 266.578C253.766 266.734 253.406 266.844 253.094 266.906C252.75 267 252.422 267.047 252.109 267.047C251.703 267.047 251.438 266.875 251.312 266.531C251.188 266.188 251.125 265.578 251.125 264.703C251.125 264.141 251.141 263.328 251.172 262.266C251.234 261.234 251.297 260.047 251.359 258.703C251.453 257.359 251.531 255.953 251.594 254.484C251.688 252.984 251.766 251.516 251.828 250.078C251.922 248.641 251.984 247.312 252.016 246.094C252.078 244.844 252.109 243.797 252.109 242.953C252.109 241.922 252.094 241.125 252.062 240.562C252.031 239.969 251.984 239.531 251.922 239.25C251.891 238.938 251.844 238.719 251.781 238.594C251.719 238.469 251.641 238.328 251.547 238.172C251.828 237.953 252.156 237.766 252.531 237.609C252.938 237.422 253.328 237.297 253.703 237.234C254.109 237.141 254.469 237.109 254.781 237.141C255.125 237.172 255.391 237.25 255.578 237.375C255.734 237.531 255.844 237.766 255.906 238.078C256 238.391 256.078 238.859 256.141 239.484C256.734 238.672 257.406 237.969 258.156 237.375C258.938 236.75 259.828 236.438 260.828 236.438ZM259 253.172C259.562 253.172 260.094 252.906 260.594 252.375C261.125 251.844 261.578 251.172 261.953 250.359C262.359 249.516 262.672 248.594 262.891 247.594C263.141 246.562 263.266 245.547 263.266 244.547C263.266 243.453 263.156 242.562 262.938 241.875C262.75 241.156 262.5 240.594 262.188 240.188C261.906 239.75 261.594 239.453 261.25 239.297C260.938 239.109 260.656 239.016 260.406 239.016C259.812 239.016 259.25 239.266 258.719 239.766C258.188 240.234 257.719 240.859 257.312 241.641C256.906 242.391 256.578 243.234 256.328 244.172C256.109 245.109 256 246.047 256 246.984C256 247.859 256.078 248.672 256.234 249.422C256.422 250.172 256.656 250.828 256.938 251.391C257.219 251.953 257.531 252.391 257.875 252.703C258.25 253.016 258.625 253.172 259 253.172ZM275.922 255.516C273.734 255.516 272.047 254.781 270.859 253.312C269.672 251.844 269.078 249.922 269.078 247.547C269.078 245.891 269.312 244.344 269.781 242.906C270.281 241.438 270.938 240.172 271.75 239.109C272.562 238.047 273.5 237.219 274.562 236.625C275.656 236 276.797 235.688 277.984 235.688C279.141 235.688 280.125 236.109 280.938 236.953C281.75 237.766 282.156 238.938 282.156 240.469C282.156 241.469 281.938 242.469 281.5 243.469C281.062 244.438 280.484 245.312 279.766 246.094C279.078 246.844 278.312 247.453 277.469 247.922C276.625 248.391 275.812 248.625 275.031 248.625C274.531 248.625 274.109 248.562 273.766 248.438C273.422 248.312 273.109 248.125 272.828 247.875C272.922 249.656 273.312 250.906 274 251.625C274.688 252.312 275.578 252.656 276.672 252.656C277.422 252.656 278.078 252.5 278.641 252.188C279.234 251.875 279.734 251.516 280.141 251.109C280.547 250.703 280.875 250.297 281.125 249.891C281.375 249.453 281.547 249.125 281.641 248.906C281.734 248.719 281.891 248.625 282.109 248.625C282.359 248.625 282.484 248.812 282.484 249.188C282.484 249.531 282.359 250.062 282.109 250.781C281.891 251.469 281.516 252.172 280.984 252.891C280.453 253.578 279.766 254.188 278.922 254.719C278.109 255.25 277.109 255.516 275.922 255.516ZM278.078 237.703C277.891 237.703 277.531 237.906 277 238.312C276.5 238.688 275.953 239.25 275.359 240C274.797 240.75 274.266 241.656 273.766 242.719C273.297 243.75 273 244.922 272.875 246.234C274.75 245.797 276.234 245.109 277.328 244.172C278.422 243.234 278.969 241.859 278.969 240.047C278.969 239.141 278.859 238.531 278.641 238.219C278.422 237.875 278.234 237.703 278.078 237.703ZM297.906 240.609C297.906 241.047 297.781 241.5 297.531 241.969C297.312 242.406 297.031 242.828 296.688 243.234C296.344 243.641 295.953 244 295.516 244.312C295.109 244.594 294.719 244.766 294.344 244.828C294.594 243.859 294.672 243.109 294.578 242.578C294.484 242.047 294.328 241.656 294.109 241.406C293.859 241.125 293.547 240.969 293.172 240.938C292.609 240.938 292.062 241.266 291.531 241.922C291.031 242.547 290.594 243.328 290.219 244.266C289.844 245.172 289.547 246.156 289.328 247.219C289.109 248.25 289 249.188 289 250.031C288.969 250.625 288.984 251.203 289.047 251.766C289.078 252.234 289.125 252.719 289.188 253.219C289.281 253.719 289.406 254.109 289.562 254.391C289.375 254.547 289.062 254.734 288.625 254.953C288.219 255.172 287.781 255.312 287.312 255.375C286.875 255.438 286.469 255.359 286.094 255.141C285.75 254.922 285.562 254.453 285.531 253.734C285.469 253.047 285.422 252.281 285.391 251.438C285.391 250.562 285.391 249.703 285.391 248.859C285.422 247.984 285.453 247.125 285.484 246.281C285.516 245.438 285.562 244.656 285.625 243.938C285.688 242.562 285.719 241.5 285.719 240.75C285.719 240 285.703 239.281 285.672 238.594C285.672 238.469 285.875 238.297 286.281 238.078C286.719 237.828 287.188 237.609 287.688 237.422C288.219 237.234 288.703 237.125 289.141 237.094C289.578 237.062 289.797 237.156 289.797 237.375C289.797 237.719 289.75 238.406 289.656 239.438C289.594 240.438 289.5 241.484 289.375 242.578C289.594 241.984 289.875 241.344 290.219 240.656C290.594 239.969 291.016 239.328 291.484 238.734C291.953 238.141 292.484 237.656 293.078 237.281C293.672 236.875 294.328 236.672 295.047 236.672C295.609 236.672 296.062 236.844 296.406 237.188C296.781 237.531 297.078 237.922 297.297 238.359C297.516 238.797 297.672 239.234 297.766 239.672C297.859 240.109 297.906 240.422 297.906 240.609ZM316.891 246.094C317.578 246.344 318.234 246.578 318.859 246.797C319.484 247.016 320.031 247.281 320.5 247.594C320.969 247.906 321.344 248.281 321.625 248.719C321.906 249.125 322.047 249.641 322.047 250.266C322.047 251.016 321.875 251.719 321.531 252.375C321.219 253.031 320.75 253.609 320.125 254.109C319.5 254.609 318.734 255 317.828 255.281C316.953 255.594 315.969 255.75 314.875 255.75C313.656 255.75 312.672 255.625 311.922 255.375C311.172 255.156 310.594 254.891 310.188 254.578C309.781 254.266 309.516 253.953 309.391 253.641C309.266 253.328 309.203 253.078 309.203 252.891C309.203 252.516 309.281 252.109 309.438 251.672C309.594 251.203 309.891 250.703 310.328 250.172C310.516 249.953 310.719 249.75 310.938 249.562C311.375 249.188 311.812 248.953 312.25 248.859C312.188 249.578 312.266 250.172 312.484 250.641C312.734 251.078 313.047 251.422 313.422 251.672C313.828 251.922 314.266 252.094 314.734 252.188C315.234 252.281 315.703 252.328 316.141 252.328C316.578 252.328 317.016 252.266 317.453 252.141C317.922 252.016 318.344 251.859 318.719 251.672C319.094 251.453 319.391 251.219 319.609 250.969C319.859 250.688 319.984 250.391 319.984 250.078C319.984 249.734 319.844 249.453 319.562 249.234C319.281 249.016 318.922 248.844 318.484 248.719C318.078 248.562 317.625 248.453 317.125 248.391C316.656 248.297 316.203 248.203 315.766 248.109C315.328 248.016 314.734 247.891 313.984 247.734C313.266 247.547 312.547 247.266 311.828 246.891C311.141 246.516 310.531 246.016 310 245.391C309.5 244.766 309.25 243.938 309.25 242.906C309.25 241.719 309.547 240.688 310.141 239.812C310.766 238.906 311.516 238.156 312.391 237.562C313.297 236.938 314.25 236.469 315.25 236.156C316.25 235.844 317.141 235.688 317.922 235.688C318.328 235.688 318.766 235.75 319.234 235.875C319.703 235.969 320.141 236.156 320.547 236.438C320.953 236.688 321.281 237.031 321.531 237.469C321.812 237.906 321.953 238.469 321.953 239.156C321.953 239.844 321.891 240.406 321.766 240.844C321.672 241.25 321.516 241.578 321.297 241.828C321.109 242.047 320.875 242.188 320.594 242.25C320.312 242.312 319.984 242.344 319.609 242.344C319.359 242.344 319.125 242.312 318.906 242.25C318.719 242.188 318.516 242.125 318.297 242.062C318.078 242 317.875 241.891 317.688 241.734C318 241.359 318.234 241 318.391 240.656C318.578 240.312 318.672 239.891 318.672 239.391C318.672 238.953 318.547 238.562 318.297 238.219C318.078 237.875 317.703 237.703 317.172 237.703C316.609 237.703 316.062 237.812 315.531 238.031C315.031 238.25 314.578 238.547 314.172 238.922C313.797 239.297 313.484 239.734 313.234 240.234C313.016 240.703 312.906 241.219 312.906 241.781C312.906 242.625 313.219 243.422 313.844 244.172C314.5 244.922 315.516 245.562 316.891 246.094ZM342.391 234.141C342.047 234.078 341.578 234.016 340.984 233.953C340.422 233.891 339.844 233.844 339.25 233.812C338.562 233.781 337.828 233.766 337.047 233.766C336.266 233.703 335.281 233.703 334.094 233.766C332.938 233.797 331.719 233.812 330.438 233.812C330.406 234.625 330.344 235.453 330.25 236.297C330.188 237.141 330.125 237.969 330.062 238.781C329.906 240.281 329.766 241.812 329.641 243.375C329.547 244.938 329.5 246.422 329.5 247.828C329.5 249.234 329.578 250.516 329.734 251.672C329.922 252.797 330.25 253.688 330.719 254.344C330.344 254.625 329.938 254.844 329.5 255C329.062 255.125 328.672 255.219 328.328 255.281C327.922 255.375 327.516 255.422 327.109 255.422C326.734 255.422 326.422 255.297 326.172 255.047C325.922 254.797 325.781 254.359 325.75 253.734C325.688 252.672 325.672 251.609 325.703 250.547C325.766 249.453 325.828 248.312 325.891 247.125C325.984 245.938 326.078 244.672 326.172 243.328C326.266 241.953 326.359 240.453 326.453 238.828C326.547 237.141 326.594 235.5 326.594 233.906C325.406 233.938 324.406 233.953 323.594 233.953C322.781 233.953 322.328 233.938 322.234 233.906C322.141 233.844 322.031 233.703 321.906 233.484C321.781 233.297 321.625 233.016 321.438 232.641C321.219 232.266 320.953 231.734 320.641 231.047C321.234 231.047 321.891 231.047 322.609 231.047C323.297 231.047 323.938 231.031 324.531 231C325.219 230.969 325.906 230.938 326.594 230.906C326.562 230.406 326.547 229.875 326.547 229.312C326.516 228.875 326.5 228.391 326.5 227.859C326.5 227.297 326.484 226.781 326.453 226.312C326.453 226.125 326.672 225.906 327.109 225.656C327.578 225.375 328.078 225.125 328.609 224.906C329.141 224.688 329.625 224.547 330.062 224.484C330.531 224.422 330.766 224.531 330.766 224.812C330.766 225.094 330.75 225.781 330.719 226.875C330.719 227.938 330.688 229.234 330.625 230.766C330.938 230.766 331.172 230.75 331.328 230.719C332.984 230.656 334.312 230.594 335.312 230.531C336.344 230.438 337.188 230.422 337.844 230.484C338.5 230.547 339.078 230.703 339.578 230.953C340.078 231.203 340.641 231.609 341.266 232.172C341.484 232.359 341.672 232.562 341.828 232.781C341.984 232.969 342.109 233.188 342.203 233.438C342.328 233.656 342.391 233.891 342.391 234.141ZM347.453 246.938C347.391 248.156 347.172 249.281 346.797 250.312C346.453 251.344 345.969 252.25 345.344 253.031C344.719 253.781 343.969 254.375 343.094 254.812C342.25 255.25 341.312 255.484 340.281 255.516C339.375 255.547 338.516 255.328 337.703 254.859C336.922 254.391 336.234 253.734 335.641 252.891C335.047 252.047 334.594 251.047 334.281 249.891C334 248.703 333.922 247.422 334.047 246.047C334.141 244.453 334.438 243.094 334.938 241.969C335.438 240.812 335.969 239.859 336.531 239.109C337.094 238.359 337.609 237.812 338.078 237.469C338.578 237.094 338.891 236.875 339.016 236.812C339.234 236.719 339.438 236.703 339.625 236.766C339.812 236.797 340.016 236.844 340.234 236.906C340.297 236.938 340.359 237.016 340.422 237.141C340.547 237.359 340.625 237.766 340.656 238.359C340.812 238.016 341.016 237.734 341.266 237.516C341.516 237.297 341.766 237.141 342.016 237.047C342.328 236.922 342.641 236.844 342.953 236.812C343.172 236.781 343.547 236.953 344.078 237.328C344.641 237.703 345.172 238.297 345.672 239.109C346.203 239.922 346.656 240.984 347.031 242.297C347.406 243.578 347.547 245.125 347.453 246.938ZM344.266 246.375C344.297 245.625 344.266 244.875 344.172 244.125C344.109 243.344 343.984 242.641 343.797 242.016C343.641 241.359 343.438 240.844 343.188 240.469C342.938 240.062 342.688 239.859 342.438 239.859C342.156 239.922 341.844 240.062 341.5 240.281C341.219 240.469 340.906 240.766 340.562 241.172C340.219 241.578 339.891 242.156 339.578 242.906C339.547 242.812 339.516 242.641 339.484 242.391C339.453 242.172 339.422 241.891 339.391 241.547C339.391 241.172 339.422 240.672 339.484 240.047C339.047 240.578 338.703 241.203 338.453 241.922C338.234 242.641 338.062 243.328 337.938 243.984C337.812 244.766 337.719 245.547 337.656 246.328C337.625 247.172 337.656 248 337.75 248.812C337.875 249.625 338.062 250.344 338.312 250.969C338.594 251.594 338.922 252.094 339.297 252.469C339.672 252.844 340.125 253.016 340.656 252.984C341.188 252.953 341.656 252.734 342.062 252.328C342.469 251.922 342.828 251.406 343.141 250.781C343.453 250.156 343.703 249.453 343.891 248.672C344.078 247.891 344.203 247.125 344.266 246.375ZM362.688 240.609C362.688 241.047 362.562 241.5 362.312 241.969C362.094 242.406 361.812 242.828 361.469 243.234C361.125 243.641 360.734 244 360.297 244.312C359.891 244.594 359.5 244.766 359.125 244.828C359.375 243.859 359.453 243.109 359.359 242.578C359.266 242.047 359.109 241.656 358.891 241.406C358.641 241.125 358.328 240.969 357.953 240.938C357.391 240.938 356.844 241.266 356.312 241.922C355.812 242.547 355.375 243.328 355 244.266C354.625 245.172 354.328 246.156 354.109 247.219C353.891 248.25 353.781 249.188 353.781 250.031C353.75 250.625 353.766 251.203 353.828 251.766C353.859 252.234 353.906 252.719 353.969 253.219C354.062 253.719 354.188 254.109 354.344 254.391C354.156 254.547 353.844 254.734 353.406 254.953C353 255.172 352.562 255.312 352.094 255.375C351.656 255.438 351.25 255.359 350.875 255.141C350.531 254.922 350.344 254.453 350.312 253.734C350.25 253.047 350.203 252.281 350.172 251.438C350.172 250.562 350.172 249.703 350.172 248.859C350.203 247.984 350.234 247.125 350.266 246.281C350.297 245.438 350.344 244.656 350.406 243.938C350.469 242.562 350.5 241.5 350.5 240.75C350.5 240 350.484 239.281 350.453 238.594C350.453 238.469 350.656 238.297 351.062 238.078C351.5 237.828 351.969 237.609 352.469 237.422C353 237.234 353.484 237.125 353.922 237.094C354.359 237.062 354.578 237.156 354.578 237.375C354.578 237.719 354.531 238.406 354.438 239.438C354.375 240.438 354.281 241.484 354.156 242.578C354.375 241.984 354.656 241.344 355 240.656C355.375 239.969 355.797 239.328 356.266 238.734C356.734 238.141 357.266 237.656 357.859 237.281C358.453 236.875 359.109 236.672 359.828 236.672C360.391 236.672 360.844 236.844 361.188 237.188C361.562 237.531 361.859 237.922 362.078 238.359C362.297 238.797 362.453 239.234 362.547 239.672C362.641 240.109 362.688 240.422 362.688 240.609ZM370.469 255.516C368.281 255.516 366.594 254.781 365.406 253.312C364.219 251.844 363.625 249.922 363.625 247.547C363.625 245.891 363.859 244.344 364.328 242.906C364.828 241.438 365.484 240.172 366.297 239.109C367.109 238.047 368.047 237.219 369.109 236.625C370.203 236 371.344 235.688 372.531 235.688C373.688 235.688 374.672 236.109 375.484 236.953C376.297 237.766 376.703 238.938 376.703 240.469C376.703 241.469 376.484 242.469 376.047 243.469C375.609 244.438 375.031 245.312 374.312 246.094C373.625 246.844 372.859 247.453 372.016 247.922C371.172 248.391 370.359 248.625 369.578 248.625C369.078 248.625 368.656 248.562 368.312 248.438C367.969 248.312 367.656 248.125 367.375 247.875C367.469 249.656 367.859 250.906 368.547 251.625C369.234 252.312 370.125 252.656 371.219 252.656C371.969 252.656 372.625 252.5 373.188 252.188C373.781 251.875 374.281 251.516 374.688 251.109C375.094 250.703 375.422 250.297 375.672 249.891C375.922 249.453 376.094 249.125 376.188 248.906C376.281 248.719 376.438 248.625 376.656 248.625C376.906 248.625 377.031 248.812 377.031 249.188C377.031 249.531 376.906 250.062 376.656 250.781C376.438 251.469 376.062 252.172 375.531 252.891C375 253.578 374.312 254.188 373.469 254.719C372.656 255.25 371.656 255.516 370.469 255.516ZM372.625 237.703C372.438 237.703 372.078 237.906 371.547 238.312C371.047 238.688 370.5 239.25 369.906 240C369.344 240.75 368.812 241.656 368.312 242.719C367.844 243.75 367.547 244.922 367.422 246.234C369.297 245.797 370.781 245.109 371.875 244.172C372.969 243.234 373.516 241.859 373.516 240.047C373.516 239.141 373.406 238.531 373.188 238.219C372.969 237.875 372.781 237.703 372.625 237.703Z" fill="#FF7474"/>
</g>
<defs>
<filter id="filter0_d" x="0" y="0" width="416" height="388" filterUnits="userSpaceOnUse" color-interpolation-filters="sRGB">
<feFlood flood-opacity="0" result="BackgroundImageFix"/>
<feColorMatrix in="SourceAlpha" type="matrix" values="0 0 0 0 0 0 0 0 0 0 0 0 0 0 0 0 0 0 127 0"/>
<feOffset dx="1" dy="50"/>
<feColorMatrix type="matrix" values="0 0 0 0 1 0 0 0 0 0.454902 0 0 0 0 0.454902 0 0 0 1 0"/>
<feBlend mode="normal" in2="BackgroundImageFix" result="effect1_dropShadow"/>
<feBlend mode="normal" in="SourceGraphic" in2="effect1_dropShadow" result="shape"/>
</filter>
<filter id="filter1_d" x="99.8761" y="38.0739" width="185.933" height="183.179" filterUnits="userSpaceOnUse" color-interpolation-filters="sRGB">
<feFlood flood-opacity="0" result="BackgroundImageFix"/>
<feColorMatrix in="SourceAlpha" type="matrix" values="0 0 0 0 0 0 0 0 0 0 0 0 0 0 0 0 0 0 127 0"/>
<feOffset dy="9"/>
<feGaussianBlur stdDeviation="2"/>
<feColorMatrix type="matrix" values="0 0 0 0 0 0 0 0 0 0 0 0 0 0 0 0 0 0 0.25 0"/>
<feBlend mode="normal" in2="BackgroundImageFix" result="effect1_dropShadow"/>
<feBlend mode="normal" in="SourceGraphic" in2="effect1_dropShadow" result="shape"/>
</filter>
<filter id="filter2_d" x="95" y="22" width="189" height="189" filterUnits="userSpaceOnUse" color-interpolation-filters="sRGB">
<feFlood flood-opacity="0" result="BackgroundImageFix"/>
<feColorMatrix in="SourceAlpha" type="matrix" values="0 0 0 0 0 0 0 0 0 0 0 0 0 0 0 0 0 0 127 0"/>
<feOffset dy="9"/>
<feGaussianBlur stdDeviation="2"/>
<feColorMatrix type="matrix" values="0 0 0 0 0 0 0 0 0 0 0 0 0 0 0 0 0 0 0.25 0"/>
<feBlend mode="normal" in2="BackgroundImageFix" result="effect1_dropShadow"/>
<feBlend mode="normal" in="SourceGraphic" in2="effect1_dropShadow" result="shape"/>
</filter>
<filter id="filter3_d" x="152.071" y="90.9498" width="106.655" height="50.8182" filterUnits="userSpaceOnUse" color-interpolation-filters="sRGB">
<feFlood flood-opacity="0" result="BackgroundImageFix"/>
<feColorMatrix in="SourceAlpha" type="matrix" values="0 0 0 0 0 0 0 0 0 0 0 0 0 0 0 0 0 0 127 0"/>
<feOffset dy="9"/>
<feGaussianBlur stdDeviation="2"/>
<feColorMatrix type="matrix" values="0 0 0 0 0 0 0 0 0 0 0 0 0 0 0 0 0 0 0.25 0"/>
<feBlend mode="normal" in2="BackgroundImageFix" result="effect1_dropShadow"/>
<feBlend mode="normal" in="SourceGraphic" in2="effect1_dropShadow" result="shape"/>
</filter>
<filter id="filter4_d" x="48.1069" y="212.425" width="161.982" height="85.7273" filterUnits="userSpaceOnUse" color-interpolation-filters="sRGB">
<feFlood flood-opacity="0" result="BackgroundImageFix"/>
<feColorMatrix in="SourceAlpha" type="matrix" values="0 0 0 0 0 0 0 0 0 0 0 0 0 0 0 0 0 0 127 0"/>
<feOffset dx="4" dy="19"/>
<feGaussianBlur stdDeviation="2"/>
<feColorMatrix type="matrix" values="0 0 0 0 0 0 0 0 0 0 0 0 0 0 0 0 0 0 0.25 0"/>
<feBlend mode="normal" in2="BackgroundImageFix" result="effect1_dropShadow"/>
<feBlend mode="normal" in="SourceGraphic" in2="effect1_dropShadow" result="shape"/>
</filter>
<filter id="filter5_d" x="205.219" y="223.172" width="175.812" height="57.875" filterUnits="userSpaceOnUse" color-interpolation-filters="sRGB">
<feFlood flood-opacity="0" result="BackgroundImageFix"/>
<feColorMatrix in="SourceAlpha" type="matrix" values="0 0 0 0 0 0 0 0 0 0 0 0 0 0 0 0 0 0 127 0"/>
<feOffset dy="10"/>
<feGaussianBlur stdDeviation="2"/>
<feColorMatrix type="matrix" values="0 0 0 0 0 0 0 0 0 0 0 0 0 0 0 0 0 0 0.25 0"/>
<feBlend mode="normal" in2="BackgroundImageFix" result="effect1_dropShadow"/>
<feBlend mode="normal" in="SourceGraphic" in2="effect1_dropShadow" result="shape"/>
</filter>
</defs>
</svg>
